<svg xmlns="http://www.w3.org/2000/svg"><symbol id="add-to-cart" viewBox="0 0 250 250"><path d="M239.5 67.6c-.6 1.5-1.4 2.9-1.9 4.4q-18.3 58.2-36.4 116.6c-.9 2.7-1.6 4.7-5.4 4.6h-123c-2.9 0-4.2-.7-4.9-3.8q-13-54.6-26.5-109.2c-2.7-11.3-5.5-22.7-8.4-34.4H4.4v-9.2h36.7c2 8.2 4.2 16 5.8 24 .8 4 2.3 5.2 6.4 5.2 62.1-.2 124.1-.1 186.2-.1zm-188.9 8c8.8 36.1 17.4 71.8 26.1 107.6h115.5c11-35.5 22-71.2 33.2-107.6zM151.3 218a14.7 14.7 0 1 1 14.8 14.4 14.4 14.4 0 0 1-14.8-14.4zm10.1-.2c.1 1.6 2.9 3.1 4.4 4.7 1.7-1.6 4.3-3.1 4.7-5s-2.3-3.5-4.5-6.7c-2.3 3.2-4.6 5.1-4.6 7zM107 203a14.3 14.3 0 0 1 14.8 14.8A14.7 14.7 0 1 1 107 203zm.5 19.2c1.6-.1 4.4-3.3 4.1-4.6s-3-4.2-4.9-4.5-3.4 2.5-6.4 4.9c3.3 2.1 5.3 4.3 7.2 4.2z"/><path fill="#fff" d="M225.4 75.6H50.6c8.8 36.1 17.4 71.8 26.1 107.6h115.5c11-35.5 22-71.2 33.2-107.6zM166 210.8c-2.3 3.2-4.6 5.1-4.6 7s2.9 3.1 4.4 4.7c1.7-1.6 4.3-3.1 4.7-5s-2.3-3.5-4.5-6.7zm-65.7 7.2c3.3 2.1 5.3 4.3 7.2 4.2s4.4-3.3 4.1-4.6-3-4.2-4.9-4.5-3.4 2.5-6.4 4.9z"/></symbol><symbol id="twitter" viewBox="0 0 250 250"><path d="M245.3 52.6a95.9 95.9 0 0 1-28.2 7.8 49.6 49.6 0 0 0 21.6-27.2 99.5 99.5 0 0 1-31.3 11.9 48.7 48.7 0 0 0-35.9-15.5 49.2 49.2 0 0 0-49.2 49.2 52 52 0 0 0 1.3 11.2A140.1 140.1 0 0 1 22.2 38.6a49.2 49.2 0 0 0 15.2 65.7 50 50 0 0 1-22.3-6.2v.6A49.3 49.3 0 0 0 54.6 147a50.4 50.4 0 0 1-13 1.7 47 47 0 0 1-9.2-.9A49.1 49.1 0 0 0 78.3 182a98.4 98.4 0 0 1-61.1 21 113.1 113.1 0 0 1-11.7-.6 139.7 139.7 0 0 0 75.4 22.1c90.5 0 140-75 140-140 0-2.2 0-4.3-.1-6.4a99.1 99.1 0 0 0 24.5-25.5z"/></symbol><symbol id="linkedin" viewBox="0 0 250 250"><path d="M137 234.6H86.6v-152H137v21.2c2.1-2.6 3.9-5 5.8-7.2a48.4 48.4 0 0 1 32-17.2c12.3-1.6 24.2-.1 35.3 5.5 12.8 6.5 21.1 16.9 25.9 30.2 3.7 10.4 4.9 21.1 4.9 32.1v86c0 .4-.1.8-.1 1.3h-50.5v-2q0-41.2-.1-82.6a40.6 40.6 0 0 0-4.2-19c-3.4-6.8-9-10.6-16.6-11.6s-12.9-.4-18.5 3.3c-7.6 5.2-12.6 12.1-13.5 21.6a53.2 53.2 0 0 0-.4 6.9zm-78.7 0H7.9v-152h50.4zM32.9 61.9c-6.1-.1-11.9-1.4-16.9-5A25.1 25.1 0 0 1 4.9 36.2a25 25 0 0 1 16.5-24.9C31.6 7.7 41.7 8 51 14.2c6.5 4.4 10 10.9 10.7 18.8.4 5.5-.3 10.8-3.2 15.6a25.2 25.2 0 0 1-17.7 12.3 71.1 71.1 0 0 1-7.9 1z"/></symbol><symbol id="instagram" viewBox="0 0 250 250"><path d="M122 247c-14.3 0-28.6.2-42.9 0-10.8-.2-21.5-.9-31.8-4q-35.2-10.5-45-45.8a91.6 91.6 0 0 1-3.2-23.3c-.3-26.2-.5-52.5-.5-78.7 0-8.6.3-17.2.9-25.7.9-13.2 4.1-25.7 11.6-36.8 9.1-13.7 22-22.4 38.1-26.5A96.2 96.2 0 0 1 72.5 3c26.5-.3 53.1-.5 79.6-.5 8.6 0 17.3.4 25.9.9 13.3.9 26 4.1 37.2 11.4 14.8 9.7 23.6 23.6 27.5 40.6a124 124 0 0 1 2.8 26.4q.1 43.1 0 86.1c-.1 9.1-.7 18.2-2.9 27.1-5.5 21.9-18.3 37.7-39.9 46.1a77.6 77.6 0 0 1-25.2 5.2c-18.5.7-37 1-55.5 1.5zm101.3-122.1c0-13.9.1-27.8-.1-41.7-.1-7.9-.5-15.8-2.4-23.6-2.5-10.5-7.8-19.2-16.7-25.5s-17.4-7.9-27-8.6c-8-.6-15.9-.9-23.9-.9q-36.6-.2-73.1.2c-8.5 0-17 .5-25.2 2.7-16.4 4.4-26.7 14.6-31.1 30.8a94.9 94.9 0 0 0-2.7 24.3q-.3 42.2 0 84.5a91.5 91.5 0 0 0 2.8 24.4c4.3 15.8 14.3 26 30.2 30.5 8.3 2.3 16.9 2.9 25.4 2.9q42.6.3 85.4 0c8.2 0 16.5-.5 24.6-2.7 15.9-4.3 26.3-14.2 30.8-30 2.4-8.4 2.8-17 2.9-25.7.2-13.8.1-27.7.1-41.6z"/><path fill="#fff" d="M223.3 124.9c0 13.9.1 27.8-.1 41.6-.1 8.7-.5 17.3-2.9 25.7-4.5 15.8-14.9 25.7-30.8 30-8.1 2.2-16.4 2.7-24.6 2.7q-42.7.3-85.4 0c-8.5 0-17.1-.6-25.4-2.9-15.9-4.5-25.9-14.7-30.2-30.5a91.5 91.5 0 0 1-2.8-24.4q-.3-42.3 0-84.5a94.9 94.9 0 0 1 2.7-24.3c4.4-16.2 14.7-26.4 31.1-30.8 8.2-2.2 16.7-2.7 25.2-2.7q36.5-.3 73.1-.2c8 0 15.9.3 23.9.9 9.6.7 18.9 2.9 27 8.6s14.2 15 16.7 25.5c1.9 7.8 2.3 15.7 2.4 23.6.2 13.9.1 27.8.1 41.7zm-37.6 0c.1-34.5-28.4-63-63.4-63a63.3 63.3 0 0 0-63.7 62.9c-.2 34.5 28.3 63 63.4 63a63.3 63.3 0 0 0 63.7-62.9zm2.4-50.8c8.1 0 14.9-6.5 15-14.4a14.9 14.9 0 1 0-15 14.4z"/><path d="M185.7 124.9a63.3 63.3 0 0 1-63.7 62.9c-35.1 0-63.6-28.5-63.4-63a63.3 63.3 0 0 1 63.7-62.9c35 0 63.5 28.5 63.4 63zm-63.3-41c-22.2.2-41.2 17-41.5 40.7-.2 22 17 40.8 41 41.1a40.7 40.7 0 0 0 41.5-40.6c.2-22-17.1-40.5-41-41.2zm65.7-9.8a14.7 14.7 0 1 1 15-14.4c-.1 7.9-6.9 14.4-15 14.4z"/><path fill="#fff" d="M122.4 83.9c23.9.7 41.2 19.2 41 41.2a40.7 40.7 0 0 1-41.5 40.6c-24-.3-41.2-19.1-41-41.1.3-23.7 19.3-40.5 41.5-40.7z"/></symbol><symbol id="facebook" viewBox="0 0 250 250"><path d="M87.4 98.6v-2.2c0-9.1-.1-18.2 0-27.3a76 76 0 0 1 2.3-19c2.3-8.4 6.2-16 12.5-22.2s15-10.5 24.2-12.4 17.3-1.5 26-1l13.3.7 4.7.4c.8 0 1.2.5 1.2 1.3 0 11.3-.1 22.6 0 33.8 0 1.4-.7 1.4-1.7 1.4-7.3-.1-14.7-.2-22 0a31.7 31.7 0 0 0-8.6 1.5c-5.8 1.9-9 6.4-9.4 12.3s-.3 13.2-.4 19.7v13h38.6c1.9 0 2 .2 1.7 2-.8 6.5-1.7 13.1-2.5 19.6l-2.4 18c-.1 1.2-1 .9-1.7.9h-32c-1.4-.1-1.7.5-1.7 1.8v19q0 41.3.1 82.5c0 1.7-.6 2-2.2 2H89.5c-2.1 0-2.1 0-2.1-2.2V141.6c0-2.6.3-2.5-2.5-2.5h-31c-1.4 0-2-.3-2-1.9.1-12.3.1-24.5 0-36.8 0-1.6.5-1.9 2-1.9 10.4.1 20.9 0 31.3 0z"/></symbol><symbol id="see-more" viewBox="0 0 250 250"><path d="M6 83.1h9.8v81.5H6zm162.7-39.7l80.5 80.5L169 204v-39.3h-50.6V83.3h50.3zM56.5 164.3H36.8V83.4h19.7zm40.7 0H77.5V83.6h19.7z"/></symbol><symbol id="error" viewBox="0 0 256 256"><path d="M252.3 206.6L137.9 8.5a11.4 11.4 0 0 0-19.8-.1L3.7 206.7a11.6 11.6 0 0 0 9.9 17.3h228.8a11.6 11.6 0 0 0 9.9-17.4zM143 80l-1 25.9-4.2 45.1h-19.6l-4.2-45.1-1-25.9zm-15 118.7c-11.2 0-19.2-8.2-19.2-19.4s8-19 19.2-19 19.2 7.9 19.2 19-8 19.4-19.2 19.4z"/></symbol><symbol id="error" viewBox="0 0 256 256"><path d="M252.3 206.6L137.9 8.5a11.4 11.4 0 0 0-19.8-.1L3.7 206.7a11.6 11.6 0 0 0 9.9 17.3h228.8a11.6 11.6 0 0 0 9.9-17.4zM143 80l-1 25.9-4.2 45.1h-19.6l-4.2-45.1-1-25.9zm-15 118.7c-11.2 0-19.2-8.2-19.2-19.4s8-19 19.2-19 19.2 7.9 19.2 19-8 19.4-19.2 19.4z"/></symbol></svg>