<svg xmlns="http://www.w3.org/2000/svg" width="16" height="16" viewBox="0 0 16 16"><path fill="#4dad48" d="M.7 4.4H9v7.25H.7z"/><g fill="#231f20"><path d="M4.7 8.9v.2l-.3.2h-.6v-.4a1 1 0 0 0-.1-.4h-.9a2.2 2.2 0 0 1-.6.7c-.2.2-.3.3-.5.3h-.3v-.6h.1c0 .2 0 .2.1.3h.5l.5-.6h.1l.5-.8.3-.5.2-.4H4v.7c0 .1.1.3.1.4v.6a.4.4 0 0 1 .1.3l.3.2h.1l.2-.2zm-1.1-.7V7a7.8 7.8 0 0 0-.4.7l-.3.5zM6.9 8c-.1.1-.2.1-.2.2h-.3c-.2 0-.3 0-.3-.1s-.2-.1-.2-.3l-.3.2-.2.3c0 .1-.1.3-.2.8h-.3c.1-.3.1-.5.2-.8a1.2 1.2 0 0 1 .1-.5h.4V8l.3-.2h.4c0 .3.1.5.3.5s.3-.1.4-.3z"/><path d="M8.1 8.7l-.2.3-.4.3h-.4c-.2 0-.3-.1-.3-.2s-.1-.1-.1-.3a5.1 5.1 0 0 1 .1-1h-.4a.3.3 0 0 1 .1-.2h.4v-.8l.5-.2h.1c-.1.1-.2.2-.2.3a4.5 4.5 0 0 0-.2.8 8.4 8.4 0 0 0-.2 1v.2h.6c.1-.1.3-.2.4-.4zm3.4-.7c.1.2.2.3.2.5s-.1.3-.2.5l-.4.3H9.4V9l.3-1.3a4.4 4.4 0 0 0 .1-.9h.6l.9.2a.5.5 0 0 1 .3.5c0 .3-.2.5-.7.6zm-.4 1a.8.8 0 0 0 .2-.5.5.5 0 0 0-.2-.4h-.7c-.1 0-.1 0-.1-.1h.7l.2-.2v-.6a.5.5 0 0 0-.2-.4h-.7a.1.1 0 0 0-.1.1v.2c-.1.9-.3 1.6-.3 1.9l.6.2zm3-.5a.8.8 0 0 1-.1.4l-.4.3-.4.2h-.3c-.1-.1-.1-.2-.2-.2l-.2.2H12l-.2-.2v-.3c0-.2.1-.5.1-.7V8l.3-.2h1c-.1.2-.1.4-.2.6a4.3 4.3 0 0 1-.1.5v.2h.4l.3-.3.2-.4zm-1.6.6v-.2c.1-.1.1-.1.1-.2v-.3a4.3 4.3 0 0 1 .1-.5h-.5a.4.4 0 0 0-.1.3l-.2.6h.4z"/><path d="M15.2 7.7h.2a6.4 6.4 0 0 0-.2.7c-.1.2-.1.5-.2.6a3.9 3.9 0 0 1-.7 1.6 1.6 1.6 0 0 1-1.3.7l-.5-.2-.2-.3a.4.4 0 0 1 .1-.3l.3.3h.5l.6-.2a1 1 0 0 0 .5-.6 2.3 2.3 0 0 0 .4-1.1l-.2.2h-.4l-.2-.2v-.3c.1-.3.1-.6.2-.8h.4a6.4 6.4 0 0 0-.2.9V9h.6v-.6a3.5 3.5 0 0 1 .1-.7z"/></g></svg>