<svg xmlns="http://www.w3.org/2000/svg" width="32" height="32" viewBox="0 0 32 32"><path fill="#4dad48" d="M.8 7.5h16.5v14.39H.8z"/><g fill="#231f20"><path d="M8.9 16.5c0 .1-.1.2-.2.4l-.5.3h-.5a.6.6 0 0 1-.6-.3c-.2-.2-.2-.4-.3-.5s-.1-.4-.1-.8v-.2H5a7.3 7.3 0 0 1-1.1 1.5 2.1 2.1 0 0 1-1.1.5.8.8 0 0 1-.6-.2.5.5 0 0 1-.2-.4c0-.1.1-.2.1-.3l.4-.2c0 .2 0 .4.1.4s.1.2.3.2a1.3 1.3 0 0 0 .7-.4 3.7 3.7 0 0 0 1-1.1h-.3a.1.1 0 0 1-.1-.1V15h.6c.2-.5.6-1 .9-1.6a2.9 2.9 0 0 0 .6-1l.5-.7v-.2h.5l-.2.4v2.7c.1.5.1.9.2 1.2a1.9 1.9 0 0 0 .2.7l.4.2h.4l.3-.3a.3.3 0 0 1 .3.1zM6.6 15v-1.2a3.7 3.7 0 0 1 .1-1.1l-.9 1.4-.5.9zm6.6-.4a.4.4 0 0 1-.1.3l-.4.3h-.6l-.6-.2a.7.7 0 0 1-.3-.6l-.6.3-.4.6h-.1a15.4 15.4 0 0 1-.3 1.6h-.6v-.4l.3-1.6a3 3 0 0 0 .2-1l.2-.2h.6a3.5 3.5 0 0 0-.1.6l.5-.5.5-.2h.4c0 .6.2.8.6.8a1 1 0 0 0 .8-.4z"/><path d="M15.6 16v.2c-.1.2-.3.3-.5.5l-.8.5h-.8c-.3 0-.5 0-.6-.2a.8.8 0 0 1-.2-.6 13.5 13.5 0 0 1 .3-2h-.8a.5.5 0 0 1 .2-.4h.7l.3-1.8 1-.4h.1c-.2.1-.4.2-.4.4a15.7 15.7 0 0 0-.3 1.6h1.5a.1.1 0 0 1-.1.1h-1.5a15.7 15.7 0 0 0-.3 2c0 .1 0 .3.1.3a.5.5 0 0 0 .4.2l.8-.3.8-.7zm6.6-1.3a1 1 0 0 1 .4.9 1.7 1.7 0 0 1-.3 1l-.9.6-1.2.2h-.7l-.5-.2-.4.2h-.5V17c0-.1.1-.2.1-.4a26.1 26.1 0 0 0 .6-2.6 15 15 0 0 0 .3-1.8h-1.4v-.4h2.4a4.2 4.2 0 0 1 1.8.3 1.2 1.2 0 0 1 .7 1c0 .6-.5 1-1.4 1.2a1.9 1.9 0 0 1 1 .4zm-.8 1.9a1.2 1.2 0 0 0 .4-1 .8.8 0 0 0-.3-.7c-.1-.2-.4-.3-.8-.3h-.6v-.4h.6l.6-.2a1 1 0 0 0 .5-.4 1.3 1.3 0 0 0 .1-.6.9.9 0 0 0-.3-.7l-.9-.2h-.5c-.1 0-.1.1-.2.2a4.3 4.3 0 0 0-.1.5c-.4 1.8-.6 3.1-.7 3.8a2 2 0 0 0 1.1.3 1.6 1.6 0 0 0 1.1-.3zm6.1-1a1.3 1.3 0 0 1-.3.8 2.7 2.7 0 0 1-.8.7l-.8.3-.5-.2a1 1 0 0 1-.4-.5 1.2 1.2 0 0 1-.5.5h-.9l-.4-.3a.6.6 0 0 1-.1-.4l.3-1.5a.5.5 0 0 1 .3-.4 1 1 0 0 1 .5-.4 1.1 1.1 0 0 1 .7-.2H26v.2c-.1 0-.1.1-.1.2a10.4 10.4 0 0 0-.3 1.2 5.1 5.1 0 0 0-.2.9.8.8 0 0 0 .2.4c0 .1.1.2.3.2l.5-.2a3.4 3.4 0 0 0 .6-.6 2 2 0 0 0 .4-.8zm-3.3 1.1q.2 0 .3-.3a.5.5 0 0 0 .2-.4v-.6l.2-.9h-.4l-.6.2a1.4 1.4 0 0 0-.2.6l-.3 1.1.2.4.2.2z"/><path d="M29.7 14l.3.2c-.1.4-.2.8-.3 1.4s-.3 1-.4 1.3a8.9 8.9 0 0 1-1.4 3.1 2.9 2.9 0 0 1-2.6 1.3 1.8 1.8 0 0 1-1.1-.3.9.9 0 0 1-.3-.6.7.7 0 0 1 .1-.5l.7.5 1 .2a1.6 1.6 0 0 0 1.2-.4 2.7 2.7 0 0 0 1-1.1 17.7 17.7 0 0 0 .8-2.2l-.5.3h-.7l-.4-.3a.4.4 0 0 1-.1-.3 2.3 2.3 0 0 1 .1-.7c.1-.7.2-1.2.3-1.7s.1-.2.3-.2h.5l-.4 1.8a3.5 3.5 0 0 1-.1.6.4.4 0 0 0 .1.3h.6a.8.8 0 0 0 .4-.4l.2-.8c.1-.8.2-1.3.2-1.5z"/></g></svg>