<svg id="ArtBay" xmlns="http://www.w3.org/2000/svg" width="64" height="64" viewBox="0 0 64 64"><title>logo64</title><rect id="green" x="2.5" y="17.5" width="32.5" height="28.33" fill="#4dad48"/><path d="M18.3,35.2a1.2,1.2,0,0,1-.4.8,2.2,2.2,0,0,1-.9.7l-1,.2a1.5,1.5,0,0,1-1.3-.6,9.3,9.3,0,0,1-.5-1,6.9,6.9,0,0,0-.3-1.6c0-.2,0-.4-.1-.4H10.7a16.2,16.2,0,0,1-2.3,2.9,3.3,3.3,0,0,1-2.2.9,1.8,1.8,0,0,1-1.1-.3.9.9,0,0,1-.3-.7.8.8,0,0,1,.2-.7l.6-.4a1.7,1.7,0,0,0,.2.9.8.8,0,0,0,.6.2,2.4,2.4,0,0,0,1.5-.6,16.6,16.6,0,0,0,1.9-2.2L9.3,33c-.1,0-.2-.1-.2-.3a.5.5,0,0,1,.1-.3c0-.2.1-.3.2-.3l1,.2,1.8-3c.7-1.1,1.1-1.8,1.3-2l.8-1.4.4-.4.3-.2h.5a1.9,1.9,0,0,0-.2.8,4.9,4.9,0,0,0-.1,1.2V28c0,.5.1,1.2.1,1.9a8.1,8.1,0,0,0,.1,1.7,11.8,11.8,0,0,0,.2,2.2,4.7,4.7,0,0,0,.4,1.4,1,1,0,0,0,.9.6.9.9,0,0,0,.6-.3c.3-.1.5-.4.7-.6S18.3,35.1,18.3,35.2Zm-4.5-2.8V30c0-.9.1-1.6.1-2.2l-1.7,2.8-1,1.7h2.6Z" fill="#231f20"/><path d="M26.8,31.5a1.3,1.3,0,0,1-.3.7,1.8,1.8,0,0,1-.7.5,2.2,2.2,0,0,1-1.1.2,1.7,1.7,0,0,1-1.3-.4,1.5,1.5,0,0,1-.6-1.1,3.4,3.4,0,0,0-1.2.6,2.4,2.4,0,0,0-.7,1.2h0a.4.4,0,0,0-.1.3c-.1.3-.3,1.4-.6,3.1,0,.2-.3.2-.7.2s-.6-.1-.6-.2A1.8,1.8,0,0,1,19,36l.6-3.3a9.9,9.9,0,0,1,.4-1.9.5.5,0,0,1,.2-.4h1.3a4.5,4.5,0,0,1-.3,1.3,3.2,3.2,0,0,1,1-1,1.7,1.7,0,0,1,1.1-.4h.5l.2.2q0,1.5,1.2,1.5a1.8,1.8,0,0,0,1.5-.9C26.8,31.3,26.8,31.4,26.8,31.5Z" fill="#231f20"/><path d="M31.5,34.3a.8.8,0,0,1-.1.4,2.6,2.6,0,0,1-.9,1,5.1,5.1,0,0,1-1.6.9,5.3,5.3,0,0,1-1.6.4,1.3,1.3,0,0,1-1.1-.5,1.6,1.6,0,0,1-.4-1.2,29,29,0,0,1,.6-4H24.7l.4-.7h1.4l.7-3.6a8.9,8.9,0,0,1,1.9-.7h.1v.2a1.2,1.2,0,0,0-.8.9c-.1.7-.3,1.7-.6,3.1h2.9v.4c0,.1,0,.2-.1.2s-.1.1-.2.1H27.8a30.8,30.8,0,0,0-.6,3.9,1.4,1.4,0,0,0,.2.7l.7.2a3.3,3.3,0,0,0,1.5-.5,11,11,0,0,0,1.8-1.4C31.4,34.2,31.5,34.2,31.5,34.3Z" fill="#231f20"/><g id="Bay"><path d="M44.6,31.8a2.5,2.5,0,0,1,.7,1.8,2.8,2.8,0,0,1-.6,1.8A4.3,4.3,0,0,1,43,36.6a6,6,0,0,1-2.4.5l-1.4-.2-1.1-.3c-.1.2-.4.3-.8.3h-.9c.1-.2.2-.3.2-.5a1.4,1.4,0,0,0,.2-.7c.3-1.3.7-3,1.1-5a26.1,26.1,0,0,0,.7-3.6c0-.1,0-.2-.1-.2H35.8c-.1,0-.1-.1-.1-.2v-.4c.1-.2.1-.4.2-.4h4.7a8.5,8.5,0,0,1,3.5.6,2.2,2.2,0,0,1,1.3,2c0,1.2-.9,2-2.6,2.4A4.9,4.9,0,0,1,44.6,31.8Zm-1.7,3.7a2.6,2.6,0,0,0,.8-2,2,2,0,0,0-.5-1.4,2.3,2.3,0,0,0-1.6-.5H40.4c-.1-.1-.1-.2-.2-.4s-.1-.2-.1-.4,0-.2.1-.2h1.1a2.4,2.4,0,0,0,1.2-.3,2.5,2.5,0,0,0,1-.8,2.1,2.1,0,0,0,.3-1.2,1.4,1.4,0,0,0-.7-1.3,3,3,0,0,0-1.8-.5l-.9.2c-.1,0-.3.2-.4.4a6.2,6.2,0,0,0-.3,1c-.7,3.6-1.1,6.1-1.4,7.4a4.1,4.1,0,0,0,2.3.6A3.2,3.2,0,0,0,42.9,35.5Z" fill="#231f20"/><path d="M54.8,33.5a2.7,2.7,0,0,1-.6,1.6,3.5,3.5,0,0,1-1.4,1.3,3.2,3.2,0,0,1-1.7.6,1.4,1.4,0,0,1-1-.4,1.6,1.6,0,0,1-.6-.8,3.9,3.9,0,0,1-1,.8l-1.1.3-.8-.2-.7-.6-.3-.8c.3-1,.5-2,.7-3a1.5,1.5,0,0,1,.5-.8l1.1-.8a2.4,2.4,0,0,1,1.3-.4,1.9,1.9,0,0,1,1.1.4c0-.2.1-.3.1-.4H52l-.3.3c0,.2-.1.3-.1.5s-.4,1.4-.6,2.3a9.2,9.2,0,0,0-.3,1.8,1.9,1.9,0,0,0,.2.8.8.8,0,0,0,.7.3,1.6,1.6,0,0,0,1-.4,4,4,0,0,0,1.2-1.1,8,8,0,0,0,.8-1.6C54.8,33.1,54.8,33.2,54.8,33.5Zm-6.3,2.3.5-.6a3,3,0,0,0,.4-.8l.3-1.2c.1-.9.3-1.6.3-1.9h-.8a1.2,1.2,0,0,0-1.1.4,4.7,4.7,0,0,0-.5,1L47.1,35c.1.2.1.5.3.7s.3.3.5.3Z" fill="#231f20"/><path d="M59.2,30.4a1,1,0,0,1,.6.3c-.2.8-.4,1.7-.6,2.8l-.7,2.6a16.3,16.3,0,0,1-2.8,6.1,5.8,5.8,0,0,1-5,2.5,3.4,3.4,0,0,1-2.2-.5,1.5,1.5,0,0,1-.7-1.3,1.7,1.7,0,0,1,.3-1,3.2,3.2,0,0,0,1.3,1,4.5,4.5,0,0,0,2,.4,4,4,0,0,0,2.4-.7,6,6,0,0,0,1.9-2.2A19.7,19.7,0,0,0,57.3,36l-1,.6-.7.2-.8-.2a1.5,1.5,0,0,1-.6-.5.9.9,0,0,1-.3-.6c0-.3.1-.7.2-1.5s.4-2.3.6-3.2.3-.4.7-.4h.8c-.1.8-.4,1.9-.6,3.5a8.6,8.6,0,0,1-.3,1.3.8.8,0,0,0,.2.5.5.5,0,0,0,.5.3,2,2,0,0,0,.8-.4,2.2,2.2,0,0,0,.7-.6l.3-1.7a21.9,21.9,0,0,0,.5-3Z" fill="#231f20"/></g></svg>