<svg height="64" viewBox="0 0 64 64" width="64" xmlns="http://www.w3.org/2000/svg"><path d="m2.5 17.5h32.5v28.33h-32.5z" fill="#4dad48"/><g fill="#231f20"><path d="m18.3 35.2a1.2 1.2 0 0 1 -.4.8 2.2 2.2 0 0 1 -.9.7l-1 .2a1.5 1.5 0 0 1 -1.3-.6 9.3 9.3 0 0 1 -.5-1 6.9 6.9 0 0 0 -.3-1.6c0-.2 0-.4-.1-.4h-3.1a16.2 16.2 0 0 1 -2.3 2.9 3.3 3.3 0 0 1 -2.2.9 1.8 1.8 0 0 1 -1.1-.3.9.9 0 0 1 -.3-.7.8.8 0 0 1 .2-.7l.6-.4a1.7 1.7 0 0 0 .2.9.8.8 0 0 0 .6.2 2.4 2.4 0 0 0 1.5-.6 16.6 16.6 0 0 0 1.9-2.2l-.5-.3c-.1 0-.2-.1-.2-.3a.5.5 0 0 1 .1-.3c0-.2.1-.3.2-.3l1 .2 1.8-3c.7-1.1 1.1-1.8 1.3-2l.8-1.4.4-.4.3-.2h.5a1.9 1.9 0 0 0 -.2.8 4.9 4.9 0 0 0 -.1 1.2v.7c0 .5.1 1.2.1 1.9a8.1 8.1 0 0 0 .1 1.7 11.8 11.8 0 0 0 .2 2.2 4.7 4.7 0 0 0 .4 1.4 1 1 0 0 0 .9.6.9.9 0 0 0 .6-.3c.3-.1.5-.4.7-.6s.1.2.1.3zm-4.5-2.8v-2.4c0-.9.1-1.6.1-2.2l-1.7 2.8-1 1.7h2.6z"/><path d="m26.8 31.5a1.3 1.3 0 0 1 -.3.7 1.8 1.8 0 0 1 -.7.5 2.2 2.2 0 0 1 -1.1.2 1.7 1.7 0 0 1 -1.3-.4 1.5 1.5 0 0 1 -.6-1.1 3.4 3.4 0 0 0 -1.2.6 2.4 2.4 0 0 0 -.7 1.2.4.4 0 0 0 -.1.3c-.1.3-.3 1.4-.6 3.1 0 .2-.3.2-.7.2s-.6-.1-.6-.2a1.8 1.8 0 0 1 .1-.6l.6-3.3a9.9 9.9 0 0 1 .4-1.9.5.5 0 0 1 .2-.4h1.3a4.5 4.5 0 0 1 -.3 1.3 3.2 3.2 0 0 1 1-1 1.7 1.7 0 0 1 1.1-.4h.5l.2.2q0 1.5 1.2 1.5a1.8 1.8 0 0 0 1.5-.9c.1.2.1.3.1.4z"/><path d="m31.5 34.3a.8.8 0 0 1 -.1.4 2.6 2.6 0 0 1 -.9 1 5.1 5.1 0 0 1 -1.6.9 5.3 5.3 0 0 1 -1.6.4 1.3 1.3 0 0 1 -1.1-.5 1.6 1.6 0 0 1 -.4-1.2 29 29 0 0 1 .6-4h-1.7l.4-.7h1.4l.7-3.6a8.9 8.9 0 0 1 1.9-.7h.1v.2a1.2 1.2 0 0 0 -.8.9c-.1.7-.3 1.7-.6 3.1h2.9v.4c0 .1 0 .2-.1.2s-.1.1-.2.1h-2.6a30.8 30.8 0 0 0 -.6 3.9 1.4 1.4 0 0 0 .2.7l.7.2a3.3 3.3 0 0 0 1.5-.5 11 11 0 0 0 1.8-1.4c0 .1.1.1.1.2z"/><path d="m44.6 31.8a2.5 2.5 0 0 1 .7 1.8 2.8 2.8 0 0 1 -.6 1.8 4.3 4.3 0 0 1 -1.7 1.2 6 6 0 0 1 -2.4.5l-1.4-.2-1.1-.3c-.1.2-.4.3-.8.3h-.9c.1-.2.2-.3.2-.5a1.4 1.4 0 0 0 .2-.7c.3-1.3.7-3 1.1-5a26.1 26.1 0 0 0 .7-3.6c0-.1 0-.2-.1-.2h-2.7c-.1 0-.1-.1-.1-.2v-.4c.1-.2.1-.4.2-.4h4.7a8.5 8.5 0 0 1 3.5.6 2.2 2.2 0 0 1 1.3 2c0 1.2-.9 2-2.6 2.4a4.9 4.9 0 0 1 1.8.9zm-1.7 3.7a2.6 2.6 0 0 0 .8-2 2 2 0 0 0 -.5-1.4 2.3 2.3 0 0 0 -1.6-.5h-1.2c-.1-.1-.1-.2-.2-.4s-.1-.2-.1-.4 0-.2.1-.2h1.1a2.4 2.4 0 0 0 1.2-.3 2.5 2.5 0 0 0 1-.8 2.1 2.1 0 0 0 .3-1.2 1.4 1.4 0 0 0 -.7-1.3 3 3 0 0 0 -1.8-.5l-.9.2c-.1 0-.3.2-.4.4a6.2 6.2 0 0 0 -.3 1c-.7 3.6-1.1 6.1-1.4 7.4a4.1 4.1 0 0 0 2.3.6 3.2 3.2 0 0 0 2.3-.6z"/><path d="m54.8 33.5a2.7 2.7 0 0 1 -.6 1.6 3.5 3.5 0 0 1 -1.4 1.3 3.2 3.2 0 0 1 -1.7.6 1.4 1.4 0 0 1 -1-.4 1.6 1.6 0 0 1 -.6-.8 3.9 3.9 0 0 1 -1 .8l-1.1.3-.8-.2-.7-.6-.3-.8c.3-1 .5-2 .7-3a1.5 1.5 0 0 1 .5-.8l1.1-.8a2.4 2.4 0 0 1 1.3-.4 1.9 1.9 0 0 1 1.1.4c0-.2.1-.3.1-.4h1.6l-.3.3c0 .2-.1.3-.1.5s-.4 1.4-.6 2.3a9.2 9.2 0 0 0 -.3 1.8 1.9 1.9 0 0 0 .2.8.8.8 0 0 0 .7.3 1.6 1.6 0 0 0 1-.4 4 4 0 0 0 1.2-1.1 8 8 0 0 0 .8-1.6c.2-.1.2 0 .2.3zm-6.3 2.3.5-.6a3 3 0 0 0 .4-.8l.3-1.2c.1-.9.3-1.6.3-1.9h-.8a1.2 1.2 0 0 0 -1.1.4 4.7 4.7 0 0 0 -.5 1l-.5 2.3c.1.2.1.5.3.7s.3.3.5.3z"/><path d="m59.2 30.4a1 1 0 0 1 .6.3c-.2.8-.4 1.7-.6 2.8l-.7 2.6a16.3 16.3 0 0 1 -2.8 6.1 5.8 5.8 0 0 1 -5 2.5 3.4 3.4 0 0 1 -2.2-.5 1.5 1.5 0 0 1 -.7-1.3 1.7 1.7 0 0 1 .3-1 3.2 3.2 0 0 0 1.3 1 4.5 4.5 0 0 0 2 .4 4 4 0 0 0 2.4-.7 6 6 0 0 0 1.9-2.2 19.7 19.7 0 0 0 1.6-4.4l-1 .6-.7.2-.8-.2a1.5 1.5 0 0 1 -.6-.5.9.9 0 0 1 -.3-.6c0-.3.1-.7.2-1.5s.4-2.3.6-3.2.3-.4.7-.4h.8c-.1.8-.4 1.9-.6 3.5a8.6 8.6 0 0 1 -.3 1.3.8.8 0 0 0 .2.5.5.5 0 0 0 .5.3 2 2 0 0 0 .8-.4 2.2 2.2 0 0 0 .7-.6l.3-1.7a21.9 21.9 0 0 0 .5-3z"/></g></svg>