<svg height="256" viewBox="0 0 256 256" width="256" xmlns="http://www.w3.org/2000/svg"><path d="m7.4 70.3h132.2v115.32h-132.2z" fill="#4dad48"/><g fill="#231f20"><path d="m71.7 142.6a4.9 4.9 0 0 1 -1.4 3.2 11.9 11.9 0 0 1 -3.6 2.6 11.7 11.7 0 0 1 -4.3 1 5.7 5.7 0 0 1 -5-2.5 11.7 11.7 0 0 1 -2.1-4.2 60 60 0 0 1 -1.1-6.4 3.9 3.9 0 0 0 -.7-1.8 4.3 4.3 0 0 0 -2-.4h-10.6c-3.5 5.6-6.6 9.6-9.4 11.9a13.1 13.1 0 0 1 -8.8 3.6 7 7 0 0 1 -4.4-1.2 3.4 3.4 0 0 1 -1.5-2.9 4.1 4.1 0 0 1 .9-2.6 5.3 5.3 0 0 1 2.7-1.6c0 1.7.2 2.8.7 3.4a3 3 0 0 0 2.4.9 9.8 9.8 0 0 0 6.1-2.5 51.4 51.4 0 0 0 7.6-9.1 4.6 4.6 0 0 1 -2.1-.5 1.1 1.1 0 0 1 -.6-1.1 6.1 6.1 0 0 1 .3-1.6 2.2 2.2 0 0 1 .7-1.2 19 19 0 0 0 4 .8c2.4-3.5 5-7.6 7.7-12.1l5.1-8.3 3.4-5.6a5.8 5.8 0 0 1 1.3-1.6 2.2 2.2 0 0 1 1.6-.5l1.9.3a9.3 9.3 0 0 0 -1 3.2 34.2 34.2 0 0 0 -.4 4.6v2.6c0 2.2.1 4.8.2 7.7s.2 5.3.3 7.1q.4 5.5.9 9a16.8 16.8 0 0 0 1.7 5.6 3.9 3.9 0 0 0 3.5 2.2 4.6 4.6 0 0 0 2.8-1 9.9 9.9 0 0 0 2.5-2.5 1.6 1.6 0 0 1 .7 1.5zm-18-11.6v-9.9a70.6 70.6 0 0 1 .4-8.7c-3.9 6.2-6.2 9.9-7 11.3l-4.2 7.1a51 51 0 0 0 6.4.4z"/><path d="m106.5 127.3a4.2 4.2 0 0 1 -1.1 2.8 8.4 8.4 0 0 1 -3.1 2.3 13.3 13.3 0 0 1 -4.5.8 7.5 7.5 0 0 1 -5.3-1.7 5.7 5.7 0 0 1 -2.2-4.3 7.8 7.8 0 0 0 -4.8 2.3 12 12 0 0 0 -3.2 4.9 2.3 2.3 0 0 0 -.3.9c-.4 1.4-1.2 5.7-2.5 13q0 .6-2.7.6c-1.7 0-2.5-.3-2.5-.9a16 16 0 0 1 .4-2.6q1-6.3 2.4-13.2c.9-4.6 1.4-7.2 1.6-8a1.8 1.8 0 0 1 1-1.2 4.2 4.2 0 0 1 1.8-.3 9.7 9.7 0 0 1 3.6.6c-.3 1-.8 2.7-1.4 5.2a15.7 15.7 0 0 1 4-4.1 8.1 8.1 0 0 1 4.6-1.5 4.8 4.8 0 0 1 1.8.3 2 2 0 0 1 1 .7c0 4.3 1.5 6.4 4.7 6.4s4.6-1.3 6.2-3.9a.8.8 0 0 1 .5.9z"/><path d="m125.5 139a10.5 10.5 0 0 1 -.2 1.3 12.8 12.8 0 0 1 -3.8 4.2 29.6 29.6 0 0 1 -6.5 3.7 19.6 19.6 0 0 1 -6.4 1.4 6.1 6.1 0 0 1 -4.7-1.8 7.1 7.1 0 0 1 -1.6-4.9c0-2.3.8-7.8 2.5-16.5l-6.3.3-.2-.3-.3-.5a25 25 0 0 1 1.7-2.9h5.7l2.9-14.5a28.7 28.7 0 0 1 7.4-3 .7.7 0 0 1 .6.4c.3.2.4.4.4.5a5.5 5.5 0 0 0 -3.1 4c-.6 2.6-1.4 6.8-2.6 12.6h11.9a1.5 1.5 0 0 0 -.1.7 2.8 2.8 0 0 1 .1.8c0 .4-.1.7-.4.8a1.2 1.2 0 0 1 -.9.3l-11.2.5c-1.5 8.3-2.3 13.6-2.3 15.9a4 4 0 0 0 .8 2.7 3.8 3.8 0 0 0 2.8 1 12.3 12.3 0 0 0 6.4-2.2 35.1 35.1 0 0 0 7-5.7 1.5 1.5 0 0 1 .4 1.2z"/><path d="m178.8 128.7a8.9 8.9 0 0 1 3 7.2 11.5 11.5 0 0 1 -2.6 7.4 15.3 15.3 0 0 1 -6.8 5 26.5 26.5 0 0 1 -15.2 1.2 23.7 23.7 0 0 1 -4.7-1.5c-.5.8-1.5 1.2-3.1 1.2h-2.2l-1.8-.4a6.5 6.5 0 0 0 1.1-2.2 26.7 26.7 0 0 0 .9-2.9q1.8-7.9 4.5-20.4c1.7-8.4 2.6-13.2 2.6-14.5s-.1-.7-.3-.8l-1.2-.2a32 32 0 0 0 -4.5.5l-4.1.3-1.4-.2a1.1 1.1 0 0 1 -.4-1 8.6 8.6 0 0 1 .3-1.7 6.8 6.8 0 0 1 .6-1.6l.6.3a2.7 2.7 0 0 0 1.5.4l2.6.2h14.5c5.9 0 10.6.9 14.2 2.7s5.2 4.6 5.2 8.1-3.5 8.2-10.6 9.8a15.7 15.7 0 0 1 7.3 3.1zm-6.7 15a10.7 10.7 0 0 0 3.2-8.1c0-2.7-.7-4.6-2-5.9s-3.5-1.9-6.5-1.9a34.8 34.8 0 0 0 -4.9.3 8.5 8.5 0 0 1 -.9-1.4 4.7 4.7 0 0 1 -.3-1.7 1.3 1.3 0 0 1 .3-1l2 .2h2.4a11.4 11.4 0 0 0 5.2-1.2 10 10 0 0 0 3.7-3.4 8.7 8.7 0 0 0 1.4-4.8 6.2 6.2 0 0 0 -2.7-5.5c-1.8-1.2-4.3-1.8-7.7-1.8a9.1 9.1 0 0 0 -3.3.5 3.3 3.3 0 0 0 -1.7 1.8 22.6 22.6 0 0 0 -1.2 4.2c-2.9 14.5-4.7 24.5-5.6 30a15.2 15.2 0 0 0 9 2.6q6.3.1 9.6-2.9z"/><path d="m220.7 135.7a11 11 0 0 1 -2.5 6.3 19.7 19.7 0 0 1 -6 5.5 12.6 12.6 0 0 1 -6.6 2.2 6.8 6.8 0 0 1 -4.2-1.3 8.1 8.1 0 0 1 -2.5-3.6 16.5 16.5 0 0 1 -4.1 3.4 9.1 9.1 0 0 1 -4.3 1.3 6 6 0 0 1 -3.3-1 9.5 9.5 0 0 1 -2.8-2.5 6.3 6.3 0 0 1 -1.2-3c1-4.3 1.8-8.4 2.6-12.5a8.5 8.5 0 0 1 2.1-3.2 23.6 23.6 0 0 1 4.6-3.3 10.8 10.8 0 0 1 5-1.4 8.8 8.8 0 0 1 4.5 1.4 5.8 5.8 0 0 1 .7-1.4 1 1 0 0 1 .8-.3l5.4-.3h.2a3.6 3.6 0 0 0 -1.1 1.4 8.7 8.7 0 0 0 -.7 1.7c-.8 2.6-1.5 5.7-2.3 9.3a43.3 43.3 0 0 0 -1.2 7.6 6.1 6.1 0 0 0 .8 3.2 3.1 3.1 0 0 0 2.7 1.4 8.2 8.2 0 0 0 4.4-1.6 18.2 18.2 0 0 0 4.6-4.6 19.8 19.8 0 0 0 3.2-6.7c.8.1 1.2.7 1.2 2zm-26.1 9.1a9.1 9.1 0 0 0 2.4-2.4 9.9 9.9 0 0 0 1.5-3.3l1-4.7c.8-3.9 1.3-6.4 1.6-7.7a8 8 0 0 0 -3.4-.7 5.5 5.5 0 0 0 -4.5 1.8 11.6 11.6 0 0 0 -2 4.2l-1.9 9.6a4.9 4.9 0 0 0 1.1 2.8 2.8 2.8 0 0 0 2.1 1.3 3.7 3.7 0 0 0 2.1-.9z"/><path d="m238.5 123c1.3.2 2.1.6 2.2 1.1-.7 3.3-1.5 7.1-2.5 11.4s-1.8 7.9-2.5 10.7a75.6 75.6 0 0 1 -11.4 24.8c-4.9 6.9-11.8 10.3-20.7 10.3-3.9 0-6.8-.7-8.8-2.2a6.4 6.4 0 0 1 -2.9-5.3 6.5 6.5 0 0 1 1.3-3.9 15.2 15.2 0 0 0 5.4 4 20.2 20.2 0 0 0 8.1 1.6 17.4 17.4 0 0 0 9.6-2.7c2.8-1.9 5.4-4.9 7.8-9.3a84.7 84.7 0 0 0 6.5-17.7 21.4 21.4 0 0 1 -3.8 2.3 8.2 8.2 0 0 1 -3.2.9 6.7 6.7 0 0 1 -2.9-.8 8.4 8.4 0 0 1 -2.8-2 4.1 4.1 0 0 1 -1.2-2.7c.2-.8.5-2.7 1-5.7.8-5.1 1.5-9.5 2.4-13.3.2-1.1 1.1-1.7 2.6-1.7h2l1.6.2c-.7 3.1-1.6 7.7-2.7 14-.4 2.3-.7 4.1-1 5.2a3.1 3.1 0 0 0 .8 2.3 2.3 2.3 0 0 0 1.9.9 6.7 6.7 0 0 0 3.3-1.3 11.2 11.2 0 0 0 3-2.6l1.2-6.8c1.1-6.2 1.8-10.2 2.1-12.2a28.1 28.1 0 0 1 3.6.5z"/></g></svg>